HIERARCHY
ROOT Hips
{
	OFFSET 0.000000 0.000000 0.000000
	CHANNELS 6 Xposition Yposition Zposition Zrotation Yrotation Xrotation 
	JOINT LHipJoint
	{
		OFFSET 0.000000 0.000000 0.000000
		CHANNELS 3 Zrotation Yrotation Xrotation
		JOINT LeftUpLeg
		{
			OFFSET 1.363060 -1.794630 0.839290
			CHANNELS 3 Zrotation Yrotation Xrotation
			JOINT LeftLeg
			{
				OFFSET 2.448110 -6.726130 0.000000
				CHANNELS 3 Zrotation Yrotation Xrotation
				JOINT LeftFoot
				{
					OFFSET 2.562200 -7.039590 0.000000
					CHANNELS 3 Zrotation Yrotation Xrotation
					JOINT LeftToeBase
					{
						OFFSET 0.157640 -0.433110 2.322550
						CHANNELS 3 Zrotation Yrotation Xrotation
						End Site
						{
							OFFSET 0.000000 0.000000 0.000000
						}
					}
				}
			}
		}
	}
	JOINT RHipJoint
	{
		OFFSET 0.000000 0.000000 0.000000
		CHANNELS 3 Zrotation Yrotation Xrotation
		JOINT RightUpLeg
		{
			OFFSET -1.305520 -1.794630 0.839290
			CHANNELS 3 Zrotation Yrotation Xrotation
			JOINT RightLeg
			{
				OFFSET -2.542530 -6.985550 0.000000
				CHANNELS 3 Zrotation Yrotation Xrotation
				JOINT RightFoot
				{
					OFFSET -2.568260 -7.056230 0.000000
					CHANNELS 3 Zrotation Yrotation Xrotation
					JOINT RightToeBase
					{
						OFFSET -0.164730 -0.452590 2.363150
						CHANNELS 3 Zrotation Yrotation Xrotation
						End Site
						{
							OFFSET 0.000000 0.000000 0.000000
						}
					}
				}
			}
		}
	}
}
MOTION
Frames: 14
Frame Time: 0.008333
-1.936005 17.359552 -1.296454 143.846791 -81.639630 -132.821295 -10.767602 -0.382262 -0.445377 -4.887335 -6.070536 -31.370176 0.407342 2.402279 46.064517 2.770668 17.719227 13.322734 5.967601 0.000000 -61.036000 8.443854 -0.047284 -0.215257 6.309308 7.900031 -7.617070 2.016876 0.505228 4.776087 -0.775401 -3.127397 -3.896994 -0.586800 0.000000 -52.530200
-1.914594 17.358652 -1.321948 140.873232 -81.567849 -130.179067 -10.806457 -0.545366 -0.437593 -5.118413 -6.523060 -32.766013 0.544262 2.510031 48.593047 2.857026 18.033298 15.377323 6.574500 0.000000 -59.824700 8.456243 -0.016986 -0.331868 6.054966 7.637647 -7.393334 1.971602 0.454976 5.093647 -0.795769 -3.159937 -4.115525 -0.566600 -0.000001 -52.447001
-1.892041 17.358132 -1.346363 137.870226 -81.482407 -127.496113 -10.834448 -0.727237 -0.435998 -5.366060 -6.976843 -34.199324 0.668239 2.608965 51.084144 2.946375 18.340844 17.405347 7.183300 0.000001 -58.487300 8.471034 0.014527 -0.445102 5.787020 7.409358 -7.174651 1.920529 0.403453 5.401764 -0.825400 -3.247472 -4.321747 -0.553100 0.000000 -52.377801
-1.868451 17.358031 -1.369962 134.842981 -81.378159 -124.777031 -10.848504 -0.922541 -0.441182 -5.636964 -7.430258 -35.668869 0.778364 2.702841 53.534646 3.032227 18.617752 19.317492 7.760800 0.000000 -56.869700 8.493080 0.048157 -0.555203 5.498778 7.203918 -6.973859 1.863841 0.349208 5.718111 -0.861895 -3.372638 -4.525923 -0.542799 -0.000000 -52.299900
-1.843974 17.358499 -1.392645 131.860204 -81.256831 -122.085198 -10.848220 -1.127849 -0.452283 -5.919804 -7.886991 -37.174431 0.876687 2.794547 55.931903 3.111911 18.860797 21.072754 8.293100 -0.000000 -55.405300 8.520454 0.083815 -0.656946 5.198289 7.048794 -6.785156 1.800769 0.294131 6.026156 -0.909026 -3.560671 -4.715545 -0.539599 0.000000 -52.228800
-1.818784 17.359609 -1.414602 128.945404 -81.116773 -119.441352 -10.832837 -1.338401 -0.468625 -6.213909 -8.347167 -38.718404 0.966507 2.887464 58.273718 3.181264 19.054271 22.609564 8.754401 0.000000 -54.117999 8.555276 0.122039 -0.750131 4.884407 6.938711 -6.615486 1.731788 0.237988 6.333316 -0.965252 -3.801355 -4.893384 -0.541600 0.000000 -52.156900
-1.792885 17.361313 -1.435878 126.126423 -80.958184 -116.872819 -10.802665 -1.550795 -0.489156 -6.514512 -8.811860 -40.304004 1.052173 2.984147 60.556941 3.237885 19.188351 23.886667 9.126200 -0.000000 -53.104601 8.597989 0.163430 -0.835008 4.558609 6.870206 -6.468525 1.657632 0.181007 6.642396 -1.029357 -4.087332 -5.059460 -0.548100 -0.000000 -52.083600
-1.766380 17.363593 -1.456443 123.436052 -80.784311 -114.410251 -10.759315 -1.763646 -0.511750 -6.810167 -9.284619 -41.934122 1.137790 3.085544 62.773826 3.281712 19.262745 24.896289 9.403199 -0.000000 -52.603400 8.646208 0.207928 -0.911439 4.227425 6.845422 -6.343570 1.579263 0.124273 6.947468 -1.101064 -4.418276 -5.208149 -0.559700 0.000000 -52.014800
-1.739400 17.366292 -1.476634 120.866706 -80.589650 -112.047085 -10.701585 -1.972257 -0.536456 -7.109982 -9.758743 -43.613689 1.228174 3.193906 64.931260 3.309019 19.252127 25.573523 9.553100 -0.000001 -52.010800 8.705959 0.257039 -0.984627 3.879128 6.825372 -6.257443 1.498615 0.065758 7.276664 -1.172806 -4.747199 -5.355654 -0.570200 0.000000 -51.941300
-1.712025 17.369369 -1.496171 118.460422 -80.383250 -109.821569 -10.633022 -2.179621 -0.559479 -7.388984 -10.243250 -45.342908 1.324768 3.306823 67.008386 3.324138 19.178848 25.983019 9.603100 -0.000000 -51.933900 8.769135 0.309567 -1.053760 3.530475 6.825696 -6.199087 1.416946 0.008153 7.606201 -1.246629 -5.090495 -5.486112 -0.583000 0.000000 -51.879900
-1.684144 17.372593 -1.515118 116.214411 -80.164651 -107.734101 -10.553737 -2.385091 -0.579926 -7.644412 -10.735835 -47.123291 1.428971 3.423625 68.999173 3.326942 19.038364 26.128166 9.551700 0.000000 -52.074401 8.836771 0.366290 -1.123162 3.178686 6.822265 -6.175539 1.336219 -0.049236 7.947315 -1.317491 -5.419127 -5.605853 -0.595000 0.000000 -51.829900
-1.655846 17.375885 -1.533387 114.139313 -79.938088 -105.793274 -10.465094 -2.590068 -0.596199 -7.863801 -11.236546 -48.954916 1.540248 3.542284 70.890094 3.319264 18.838173 26.050874 9.414400 0.000001 -52.383299 8.905640 0.426674 -1.194752 2.829791 6.809164 -6.184804 1.258052 -0.105580 8.294322 -1.383547 -5.724731 -5.711672 -0.606001 -0.000000 -51.802800
-1.627129 17.379048 -1.550989 112.233010 -79.704165 -103.997873 -10.366944 -2.795314 -0.606943 -8.041433 -11.745518 -50.835648 1.656658 3.660302 72.665361 3.303079 18.588941 25.802023 9.211300 0.000001 -52.764800 8.975069 0.491092 -1.271883 2.482875 6.770705 -6.229836 1.184001 -0.161037 8.651462 -1.441313 -5.988382 -5.806955 -0.614100 -0.000000 -51.796800
-1.597930 17.381991 -1.567850 110.493262 -79.465467 -102.345833 -10.259464 -3.002069 -0.611422 -8.168607 -12.261229 -52.763013 1.775303 3.775137 74.308845 3.280590 18.302505 25.440899 8.965100 0.000001 -53.144700 9.042820 0.559365 -1.356317 2.141127 6.702097 -6.308845 1.115161 -0.215162 9.014915 -1.489379 -6.203562 -5.891158 -0.618900 0.000000 -51.816900
